<?xml version="1.0" encoding="utf-8"?>
<!-- Generator: Adobe Illustrator 26.0.3, SVG Export Plug-In . SVG Version: 6.00 Build 0)  -->
<svg version="1.0" id="katman_1" xmlns="http://www.w3.org/2000/svg" xmlns:xlink="http://www.w3.org/1999/xlink" x="0px" y="0px"
	 viewBox="0 0 600 450" style="enable-background:new 0 0 600 450;" xml:space="preserve">
<style type="text/css">
	.st0{fill-rule:evenodd;clip-rule:evenodd;fill:#0F1689;}
</style>
<g>
	<path class="st0" d="M145.4,187.2h20.1v27.3h24.3v-27.3h20.1v76.6h-20.1v-29.2h-24.3v29.2h-20.1V187.2z M233.2,263.8v-76.6h47.7
		v16.7h-27.5v12.5h24.3v17h-24.3v14.1h27.5v16.4H233.2z M302.9,263.8v-76.6H323v56.4h27.6v20.2H302.9z M381.8,187.2l31.3,28.4
		l31.2-28.4h9.1v76.6h-20.2v-39.3l-20,18.3L393,224.5v39.2h-20.2v-76.6H381.8z M381.8,187.2"/>
	<g>
		<defs>
			<rect id="SVGID_1_" x="145.4" y="47" width="308.1" height="357"/>
		</defs>
		<clipPath id="SVGID_00000178167094089708088640000008714839367770516877_">
			<use xlink:href="#SVGID_1_"  style="overflow:visible;"/>
		</clipPath>
		<g style="clip-path:url(#SVGID_00000178167094089708088640000008714839367770516877_);">
			
				<image style="overflow:visible;" width="946" height="1096" xlink:href="6B3B4C78.jpg"  transform="matrix(0.3258 0 0 0.3258 145.4335 47)">
			</image>
		</g>
	</g>
</g>
</svg>
